<svg xmlns="http://www.w3.org/2000/svg" viewBox="0 0 64 64" fill="none">
  <rect width="64" height="64" rx="16" fill="#0B0D11"/>
  <path
    d="M23 13H35.9C43.273 13 47.5 16.802 47.5 23.003C47.5 27.72 45.17 30.729 41.309 31.849V32.045C46.026 32.941 49 36.617 49 41.985C49 49.02 44.168 53 35.676 53H23V13ZM31.072 29.011H34.635C38.407 29.011 40.328 27.45 40.328 24.396C40.328 21.461 38.346 19.901 34.605 19.901H31.072V29.011ZM31.072 46.099H35.018C39.436 46.099 41.664 44.33 41.664 40.775C41.664 37.279 39.376 35.512 34.812 35.512H31.072V46.099Z"
    fill="#F2EDE2"
  />
  <path
    d="M18.5 18.5L18.5 45.5"
    stroke="#D69033"
    stroke-width="2.25"
    stroke-linecap="round"
    opacity="0.9"
  />
  <path
    d="M45.5 18.5L45.5 45.5"
    stroke="#D69033"
    stroke-width="2.25"
    stroke-linecap="round"
    opacity="0.38"
  />
</svg>
